<?xml version="1.0" standalone="no"?>
<!DOCTYPE svg PUBLIC "-//W3C//DTD SVG 20010904//EN"
 "http://www.w3.org/TR/2001/REC-SVG-20010904/DTD/svg10.dtd">
<svg version="1.0" xmlns="http://www.w3.org/2000/svg"
 width="1000.000000pt" height="1000.000000pt" viewBox="0 0 1000.000000 1000.000000"
 preserveAspectRatio="xMidYMid meet">
<metadata>
Created by potrace 1.15, written by Peter Selinger 2001-2017
</metadata>
<g transform="translate(0.000000,1000.000000) scale(0.100000,-0.100000)"
fill="#000000" stroke="none">
<path d="M4655 9989 c-532 -37 -1088 -168 -1577 -373 -1653 -690 -2814 -2213
-3037 -3984 -38 -297 -50 -618 -34 -876 l6 -106 685 2 685 3 356 479 c196 264
360 480 366 480 5 1 135 -161 288 -359 153 -198 282 -361 286 -363 3 -1 168
351 366 783 205 449 361 781 365 773 4 -7 227 -682 496 -1500 268 -818 491
-1482 495 -1475 4 6 285 1117 625 2467 339 1350 620 2458 623 2462 3 4 258
-838 567 -1870 l560 -1877 561 -3 561 -2 262 387 c145 214 267 392 272 398 5
6 184 -166 458 -440 l450 -450 -177 -177 -178 -178 -231 231 c-128 127 -236
229 -240 226 -5 -3 -85 -118 -179 -256 l-170 -251 -882 0 -882 0 -19 63 c-10
34 -169 565 -352 1180 -184 614 -337 1111 -341 1105 -3 -7 -280 -1100 -615
-2430 -335 -1329 -612 -2411 -616 -2405 -3 7 -257 775 -563 1707 -307 932
-561 1698 -564 1702 -3 4 -121 -243 -260 -550 -140 -306 -259 -567 -266 -580
-10 -22 -17 -15 -125 125 -63 81 -217 279 -341 440 l-226 292 -239 -324 -239
-324 -777 0 c-756 -1 -778 -2 -778 -20 0 -10 9 -63 20 -117 309 -1503 1283
-2778 2650 -3469 886 -447 1891 -620 2882 -495 1772 225 3294 1384 3984 3038
462 1105 508 2360 129 3497 -685 2058 -2612 3439 -4773 3424 -108 -1 -251 -6
-317 -10z"/>
</g>
</svg>
